<svg width="100" height="100" viewBox="0 0 100 100" fill="none" xmlns="http://www.w3.org/2000/svg">
<rect width="100" height="100" fill="white"/>
<path d="M26 26C26 23.8783 26.8429 21.8434 28.3431 20.3431C29.8434 18.8429 31.8783 18 34 18H66C68.1217 18 70.1566 18.8429 71.6569 20.3431C73.1571 21.8434 74 23.8783 74 26V80C73.9998 80.3618 73.9015 80.7167 73.7155 81.027C73.5296 81.3373 73.2629 81.5914 72.944 81.7622C72.6251 81.9329 72.2658 82.014 71.9044 81.9967C71.5431 81.9794 71.1932 81.8644 70.892 81.664L50 70.404L29.108 81.664C28.8068 81.8644 28.4569 81.9794 28.0956 81.9967C27.7342 82.014 27.3749 81.9329 27.056 81.7622C26.7371 81.5914 26.4704 81.3373 26.2845 81.027C26.0985 80.7167 26.0002 80.3618 26 80V26ZM34 22C32.9391 22 31.9217 22.4214 31.1716 23.1716C30.4214 23.9217 30 24.9391 30 26V76.264L48.892 66.336C49.2202 66.1176 49.6057 66.001 50 66.001C50.3943 66.001 50.7798 66.1176 51.108 66.336L70 76.264V26C70 24.9391 69.5786 23.9217 68.8284 23.1716C68.0783 22.4214 67.0609 22 66 22H34Z" fill="url(#paint0_linear)"/>
<defs>
<linearGradient id="paint0_linear" x1="27.5" y1="20.5" x2="71.5" y2="80.5" gradientUnits="userSpaceOnUse">
<stop stop-color="#FBDB89"/>
<stop offset="0.666506" stop-color="#F48982"/>
</linearGradient>
</defs>
</svg>
