<svg width="100" height="100" viewBox="0 0 100 100" fill="none" xmlns="http://www.w3.org/2000/svg">
<rect width="100" height="100" fill="white"/>
<path d="M50 78C42.5739 78 35.452 75.05 30.201 69.799C24.95 64.548 22 57.4261 22 50C22 42.5739 24.95 35.452 30.201 30.201C35.452 24.95 42.5739 22 50 22C57.4261 22 64.548 24.95 69.799 30.201C75.05 35.452 78 42.5739 78 50C78 57.4261 75.05 64.548 69.799 69.799C64.548 75.05 57.4261 78 50 78ZM50 82C58.4869 82 66.6263 78.6286 72.6274 72.6274C78.6286 66.6263 82 58.4869 82 50C82 41.5131 78.6286 33.3737 72.6274 27.3726C66.6263 21.3714 58.4869 18 50 18C41.5131 18 33.3737 21.3714 27.3726 27.3726C21.3714 33.3737 18 41.5131 18 50C18 58.4869 21.3714 66.6263 27.3726 72.6274C33.3737 78.6286 41.5131 82 50 82V82Z" fill="url(#paint0_linear)"/>
<path d="M35.1406 56.268C35.5999 56.0028 36.1458 55.9309 36.6582 56.0682C37.1705 56.2055 37.6073 56.5407 37.8726 57C39.101 59.1293 40.8688 60.8975 42.9979 62.1263C45.127 63.3552 47.5423 64.0015 50.0006 64C52.4589 64.0015 54.8742 63.3552 57.0033 62.1263C59.1324 60.8975 60.9001 59.1293 62.1286 57C62.2589 56.7707 62.4334 56.5695 62.6418 56.4079C62.8503 56.2463 63.0886 56.1275 63.3432 56.0584C63.5977 55.9893 63.8634 55.9712 64.125 56.0052C64.3866 56.0392 64.6388 56.1246 64.8672 56.2565C65.0956 56.3884 65.2957 56.5641 65.4559 56.7736C65.6162 56.9832 65.7334 57.2223 65.8008 57.4773C65.8682 57.7323 65.8845 57.9981 65.8488 58.2594C65.813 58.5208 65.726 58.7725 65.5926 59C64.0131 61.7374 61.7404 64.0105 59.0032 65.5904C56.266 67.1704 53.161 68.0014 50.0006 68C46.8401 68.0014 43.7351 67.1704 40.9979 65.5904C38.2608 64.0105 35.9881 61.7374 34.4086 59C34.1434 58.5406 34.0715 57.9947 34.2088 57.4824C34.346 56.9701 34.6812 56.5332 35.1406 56.268ZM46.0006 44C46.0006 47.312 44.2086 50 42.0006 50C39.7926 50 38.0006 47.312 38.0006 44C38.0006 40.688 39.7926 38 42.0006 38C44.2086 38 46.0006 40.688 46.0006 44ZM62.0006 44C62.0006 47.312 60.2086 50 58.0006 50C55.7926 50 54.0006 47.312 54.0006 44C54.0006 40.688 55.7926 38 58.0006 38C60.2086 38 62.0006 40.688 62.0006 44Z" fill="url(#paint1_linear)"/>
<defs>
<linearGradient id="paint0_linear" x1="20" y1="20.5" x2="58.9619" y2="91.3388" gradientUnits="userSpaceOnUse">
<stop stop-color="#FBDB89"/>
<stop offset="0.666506" stop-color="#F48982"/>
</linearGradient>
<linearGradient id="paint1_linear" x1="35.1321" y1="39.1719" x2="52.837" y2="73.2147" gradientUnits="userSpaceOnUse">
<stop stop-color="#FBDB89"/>
<stop offset="0.666506" stop-color="#F48982"/>
</linearGradient>
</defs>
</svg>
